<svg viewBox="0 0 200 200" xmlns="http://www.w3.org/2000/svg">
  <defs>
    <linearGradient id="grad-core" x1="0%" y1="0%" x2="100%" y2="100%">
      <stop offset="0%" stop-color="#6366f1" />
      <stop offset="50%" stop-color="#8b5cf6" />
      <stop offset="100%" stop-color="#ec4899" />
    </linearGradient>
    <filter id="glow-core">
      <feGaussianBlur stdDeviation="6" result="blur" />
      <feComposite in="SourceGraphic" in2="blur" operator="over" />
    </filter>
  </defs>
  <path d="M 60 50 A 40 40 0 0 1 140 50 L 140 70 A 5 5 0 0 1 130 70 L 130 50 A 30 30 0 0 0 70 50 L 70 150 A 30 30 0 0 0 130 150 L 130 130 A 5 5 0 0 1 140 130 L 140 150 A 40 40 0 0 1 60 150 Z" fill="#ffffff" opacity="0.15" />
  <rect x="85" y="45" width="30" height="110" rx="15" fill="url(#grad-core)" filter="url(#glow-core)" />
  <path d="M 85 60 C 85 51.7 91.7 45 100 45 C 108.3 45 115 51.7 115 60 L 115 100 L 85 100 Z" fill="#ffffff" opacity="0.12" />
  <path d="M 50 85 L 40 95 L 50 105" stroke="#8b5cf6" stroke-width="3" stroke-linecap="round" stroke-linejoin="round" fill="none" />
  <path d="M 150 85 L 160 95 L 150 105" stroke="#ec4899" stroke-width="3" stroke-linecap="round" stroke-linejoin="round" fill="none" />
</svg>
